# This file uses centimeters as units for non-parametric coordinates.

mtllib Jukebox.mtl
g default
v -50.000000 -9.564400 50.000000
v -16.666700 -9.564400 50.000000
v 16.666700 -9.564400 50.000000
v 50.000000 -9.564400 50.000000
v -50.000000 132.452798 50.000000
v -16.666700 132.452798 50.000000
v 16.666700 132.452798 50.000000
v 50.000000 132.452798 50.000000
v -29.844701 167.317903 50.000000
v -16.666700 171.865904 50.000000
v 16.666700 171.865904 50.000000
v 29.844701 167.317903 50.000000
v -29.844701 167.317903 -16.195901
v -16.666700 171.865904 -16.195901
v 16.666700 171.865904 -16.195901
v 29.844701 167.317903 -16.195901
v -50.000000 132.452798 -16.195901
v -16.666700 132.452798 -16.195901
v 16.666700 132.452798 -16.195901
v 50.000000 132.452798 -16.195901
v -50.000000 -9.564400 -16.195901
v -16.666700 -9.564400 -16.195901
v 16.666700 -9.564400 -16.195901
v 50.000000 -9.564400 -16.195901
v -45.135501 154.123700 50.000000
v -45.135501 154.123700 -16.195901
v -16.666700 154.123700 -16.195901
v 16.666700 154.123700 -16.195901
v 45.135501 154.123700 -16.195901
v 45.135501 154.123700 50.000000
v 16.666700 154.123700 50.000000
v -16.666700 154.123700 50.000000
v -11.818000 154.666197 52.252102
v -30.939999 140.503705 52.252102
v -38.243899 111.558199 52.252102
v -12.793800 164.397895 69.483101
v -33.494499 149.066103 69.483101
v -41.401500 118.228602 69.483101
v -17.763400 177.185702 60.574597
v -46.505100 157.281899 60.574597
v -57.483399 125.076699 60.574597
v -17.763400 177.185595 43.929800
v -46.505100 157.281899 43.929800
v -57.483399 125.076699 43.929699
v -12.793800 164.397895 35.021201
v -33.494499 149.066103 35.021201
v -41.401401 124.258602 35.021201
v -40.824699 -9.430200 41.151300
v -55.711299 -9.430200 47.249401
v -56.336999 -9.430200 61.143500
v -41.220799 -9.430200 66.284502
v -36.788300 -9.430200 52.124500
v 11.818000 154.666197 52.252102
v 30.939999 140.503705 52.252102
v 38.243899 111.558199 52.252102
v 12.793800 164.397895 69.483101
v 33.494499 149.066103 69.483101
v 41.401500 118.228602 69.483101
v 17.763400 177.185702 60.574597
v 46.505100 157.281899 60.574597
v 57.483399 125.076699 60.574597
v 17.763400 177.185595 43.929800
v 46.505100 157.281899 43.929800
v 57.483399 125.076699 43.929699
v 12.793800 164.397895 35.021201
v 33.494499 149.066103 35.021201
v 41.401401 124.258602 35.021201
v 40.824699 -9.430200 41.151300
v 55.711299 -9.430200 47.249401
v 56.336999 -9.430200 61.143500
v 41.220799 -9.430200 66.284502
v 36.788300 -9.430200 52.124500
v 5.463200 21.522100 52.730799
v 13.795200 27.693099 52.730799
v 16.977701 40.305501 52.730799
v 5.888400 17.281801 60.238898
v 14.908300 23.962300 60.238898
v 18.353599 37.399000 60.238898
v 8.053800 11.709700 56.357199
v 20.577399 20.382400 56.357199
v 25.360900 34.415200 56.357199
v 8.053800 11.709800 49.104500
v 20.577399 20.382400 49.104500
v 25.360900 34.415200 49.104500
v 5.888400 17.281801 45.222801
v 14.908300 23.962300 45.222801
v 18.353599 34.771600 45.222801
v 18.102200 76.283097 47.893900
v 24.588799 76.283097 50.550997
v 24.861400 76.283097 56.605101
v 18.274900 76.283097 58.845103
v 16.343500 76.283097 52.675200
v -4.835700 21.522100 52.730799
v -13.167700 27.693099 52.730799
v -16.350199 40.305501 52.730799
v -5.260800 17.281801 60.238898
v -14.280701 23.962300 60.238898
v -17.726000 37.399000 60.238898
v -7.426200 11.709700 56.357199
v -19.949800 20.382400 56.357199
v -24.733400 34.415200 56.357199
v -7.426200 11.709800 49.104500
v -19.949800 20.382400 49.104500
v -24.733400 34.415200 49.104500
v -5.260800 17.281801 45.222801
v -14.280701 23.962300 45.222801
v -17.726000 34.771600 45.222801
v -17.474701 76.283097 47.893900
v -23.961300 76.283097 50.550997
v -24.233900 76.283097 56.605101
v -17.647301 76.283097 58.845103
v -15.716000 76.283097 52.675200
v -26.340500 81.701797 60.289103
v 26.340500 81.701797 60.289103
v -26.340500 75.883299 60.289103
v 26.340500 75.883299 60.289103
v -26.340500 75.883299 40.604901
v 26.340500 75.883299 40.604901
v -26.340500 81.701797 40.604901
v 26.340500 81.701797 40.604901
v -26.157501 107.494497 55.498201
v 26.157501 107.494497 55.498201
v -16.158600 140.901899 55.498201
v -9.023700 144.043100 55.498201
v 9.023700 144.043100 55.498201
v 16.158600 140.901899 55.498201
v -16.158600 140.901899 44.110000
v -9.023700 144.043100 44.110000
v 9.023700 144.043100 44.110000
v 16.158600 140.901899 44.110000
v -26.157501 107.494497 44.110000
v 26.157501 107.494497 44.110000
v -24.437299 131.788599 55.498201
v -24.437299 131.788599 44.110000
v 24.437299 131.788599 44.110000
v 24.437299 131.788599 55.498201
v 9.023700 131.788599 55.498201
v -9.023700 131.788599 55.498201
v -26.340500 107.140398 60.521102
v 26.340500 107.140398 60.521102
v -28.090999 86.734998 67.171198
v 28.090999 86.734998 67.171198
v -28.090999 86.734998 40.604901
v 28.090999 86.734998 40.604901
v -26.340500 107.140398 40.604901
v 26.340500 107.140398 40.604901
v 11.387300 20.619000 47.421601
v 10.384200 19.211601 47.421601
v -0.747100 34.828901 47.421601
v 0.312900 33.341700 47.421601
v 1.316100 34.749100 47.421601
v 0.256100 36.236301 47.421601
v 21.419600 34.694499 47.421601
v 20.416500 33.287001 47.421601
v 9.285200 48.904300 47.421601
v 10.345300 47.417101 47.421601
v 11.348400 48.824501 47.421601
v 10.288400 50.311702 47.421601
v -9.217800 19.969900 47.421601
v -10.277800 21.457200 47.421601
v -11.348400 49.702600 47.421601
v -10.288300 48.215300 47.421601
v -9.285200 49.622801 47.421601
v -10.345200 51.109999 47.421601
v 19.819100 63.683498 47.421601
v 20.879200 62.196201 47.421601
v -1.316000 63.778001 47.421601
v -0.256000 62.290800 47.421601
v 0.747100 63.698202 47.421601
v -0.312900 65.185398 47.421601
v -19.819100 34.843600 47.421601
v -20.879100 36.330801 47.421601
v -21.419600 63.832599 47.421601
v -20.416500 65.240002 47.421601
v 9.217900 78.557098 47.421601
v 10.277900 77.069902 47.421601
v -11.387300 77.907997 47.421601
v -10.384200 79.315501 47.421601
v 10.384200 19.211601 56.699097
v 11.387300 20.619000 56.699097
v 1.316100 34.749100 56.699097
v 0.312900 33.341700 56.699097
v -0.747100 34.828901 56.699097
v 0.256100 36.236301 56.699097
v -9.285200 49.622801 56.699097
v -10.288300 48.215300 56.699097
v -10.277800 21.457200 56.699097
v -9.217800 19.969900 56.699097
v 10.345300 47.417101 56.699097
v 9.285200 48.904300 56.699097
v 20.416500 33.287001 56.699097
v 21.419600 34.694499 56.699097
v 11.348400 48.824501 56.699097
v 10.288400 50.311702 56.699097
v 0.747100 63.698202 56.699097
v -0.256000 62.290800 56.699097
v 20.879200 62.196201 56.699097
v 19.819100 63.683498 56.699097
v -11.348400 49.702600 56.699097
v -10.345200 51.109999 56.699097
v -20.416500 65.240002 56.699097
v -21.419600 63.832599 56.699097
v -20.879100 36.330801 56.699097
v -19.819100 34.843600 56.699097
v -1.316000 63.778001 56.699097
v -0.312900 65.185398 56.699097
v -10.384200 79.315501 56.699097
v -11.387300 77.907997 56.699097
v 10.277900 77.069902 56.699097
v 9.217900 78.557098 56.699097
vt 0.000000 0.205085
vt 0.076069 0.205071
vt 0.076128 0.529165
vt 0.000059 0.529179
vt 0.152138 0.205057
vt 0.152197 0.529151
vt 0.228207 0.205043
vt 0.228266 0.529137
vt 0.076137 0.578619
vt 0.011169 0.578631
vt 0.152206 0.578605
vt 0.217174 0.578594
vt 0.931219 0.543918
vt 0.931219 0.569803
vt 0.745547 0.569803
vt 0.745547 0.543919
vt 0.931219 0.631693
vt 0.745547 0.631693
vt 0.931219 0.657577
vt 0.745547 0.657577
vt 0.730803 0.884389
vt 0.665835 0.884384
vt 0.665838 0.834930
vt 0.741907 0.834935
vt 0.589765 0.884379
vt 0.589769 0.834924
vt 0.524797 0.884374
vt 0.513700 0.834918
vt 0.665863 0.510836
vt 0.741932 0.510841
vt 0.589793 0.510830
vt 0.513724 0.510825
vt 0.931219 1.000000
vt 0.745548 1.000000
vt 0.745547 0.736314
vt 0.931219 0.736314
vt 0.745547 0.695077
vt 0.931219 0.695076
vt 0.745547 0.201496
vt 0.931218 0.201496
vt 0.931219 0.465181
vt 0.745547 0.465182
vt 0.931219 0.506419
vt 0.745547 0.506420
vt 0.695906 0.914497
vt 0.665832 0.924873
vt 0.589762 0.924868
vt 0.559690 0.914487
vt 0.182285 0.608710
vt 0.152213 0.619094
vt 0.076144 0.619108
vt 0.046069 0.608735
vt 0.364017 0.046136
vt 0.431654 0.045496
vt 0.434791 0.092219
vt 0.374006 0.089014
vt 0.284721 0.045924
vt 0.297872 0.085809
vt 0.433003 0.127955
vt 0.369184 0.129409
vt 0.305389 0.128404
vt 0.432752 0.166187
vt 0.369185 0.166393
vt 0.304213 0.166835
vt 0.435000 0.199963
vt 0.372642 0.204771
vt 0.307606 0.209417
vt 0.375071 0.003127
vt 0.435127 0.000169
vt 0.313567 0.005244
vt 0.000000 0.191649
vt 0.001388 0.154546
vt 0.002134 0.121931
vt 0.002815 0.085001
vt 0.002167 0.050869
vt 0.001782 0.023968
vt 0.566009 0.046724
vt 0.556274 0.089545
vt 0.495238 0.093300
vt 0.498573 0.047289
vt 0.645214 0.045896
vt 0.632313 0.085853
vt 0.561282 0.129895
vt 0.497770 0.127532
vt 0.625078 0.128475
vt 0.561320 0.166955
vt 0.497325 0.165962
vt 0.626525 0.166880
vt 0.558183 0.205400
vt 0.495456 0.201945
vt 0.623497 0.209469
vt 0.554829 0.003744
vt 0.495324 0.000002
vt 0.616147 0.005462
vt 0.930997 0.189388
vt 0.929317 0.152300
vt 0.928322 0.119701
vt 0.927362 0.082790
vt 0.927751 0.048660
vt 0.927932 0.021761
vt 0.393986 0.567133
vt 0.366695 0.570046
vt 0.361783 0.549946
vt 0.388435 0.548261
vt 0.426897 0.568299
vt 0.421770 0.550532
vt 0.359877 0.533879
vt 0.389576 0.530171
vt 0.419517 0.531641
vt 0.357216 0.517590
vt 0.389158 0.513590
vt 0.421305 0.515024
vt 0.391051 0.585774
vt 0.368994 0.589561
vt 0.414161 0.584921
vt 0.513357 0.530237
vt 0.511480 0.544074
vt 0.509536 0.559754
vt 0.508564 0.574370
vt 0.507707 0.585905
vt 0.314468 0.585477
vt 0.311121 0.566115
vt 0.335849 0.555617
vt 0.340103 0.575663
vt 0.285350 0.600963
vt 0.282189 0.582752
vt 0.302149 0.550382
vt 0.330427 0.541021
vt 0.275942 0.564787
vt 0.295289 0.535267
vt 0.325712 0.524931
vt 0.267072 0.550619
vt 0.325366 0.601001
vt 0.347012 0.595211
vt 0.304077 0.610345
vt 0.190933 0.604454
vt 0.198658 0.616085
vt 0.207247 0.629344
vt 0.214495 0.642072
vt 0.220295 0.652080
vt 0.076741 0.664693
vt 0.076856 0.677971
vt 0.197074 0.676927
vt 0.196958 0.663649
vt 0.077246 0.722890
vt 0.197464 0.721846
vt 0.076351 0.619774
vt 0.196568 0.618730
vt 0.241993 0.676537
vt 0.241877 0.663260
vt 0.031822 0.665083
vt 0.031937 0.678361
vt 0.961797 0.034252
vt 0.958083 0.049551
vt 0.932074 0.046161
vt 0.936638 0.026763
vt 0.957034 0.087847
vt 0.931933 0.090677
vt 0.960681 0.103464
vt 0.936359 0.109776
vt 0.718108 0.323885
vt 0.744032 0.325716
vt 0.740117 0.381157
vt 0.714192 0.379326
vt 0.572798 0.325746
vt 0.598721 0.323906
vt 0.602657 0.379346
vt 0.576733 0.381186
vt 0.948583 0.000000
vt 0.973776 0.009522
vt 0.972558 0.127965
vt 0.946855 0.137735
vt 0.985570 0.091381
vt 0.985522 0.046823
vt 0.718104 0.297896
vt 0.598717 0.297917
vt 0.336752 0.643508
vt 0.336910 0.679414
vt 0.457131 0.678885
vt 0.456973 0.642979
vt 0.337177 0.740040
vt 0.457398 0.739510
vt 0.336552 0.598059
vt 0.456773 0.597529
vt 0.511962 0.653018
vt 0.498079 0.623588
vt 0.295477 0.624480
vt 0.281853 0.654032
vt 0.529186 0.203978
vt 0.536302 0.211492
vt 0.460858 0.282935
vt 0.453742 0.275420
vt 0.445802 0.282940
vt 0.452918 0.290454
vt 0.381445 0.358137
vt 0.374329 0.350623
vt 0.378193 0.211545
vt 0.386134 0.204026
vt 0.524909 0.350572
vt 0.516969 0.358092
vt 0.600352 0.279129
vt 0.607468 0.286644
vt 0.532025 0.358087
vt 0.524084 0.365606
vt 0.452612 0.433289
vt 0.445496 0.425775
vt 0.599634 0.429481
vt 0.591693 0.437001
vt 0.366388 0.358142
vt 0.373504 0.365657
vt 0.298061 0.437100
vt 0.290945 0.429585
vt 0.298780 0.286748
vt 0.306720 0.279229
vt 0.437555 0.433294
vt 0.444671 0.440809
vt 0.369228 0.512251
vt 0.362112 0.504737
vt 0.520220 0.504684
vt 0.512280 0.512203
vt 0.536302 0.211492
vt 0.460858 0.282935
vt 0.453742 0.275420
vt 0.529186 0.203978
vt 0.452918 0.290454
vt 0.381445 0.358137
vt 0.374329 0.350623
vt 0.445802 0.282940
vt 0.378193 0.211545
vt 0.386134 0.204026
vt 0.524909 0.350572
vt 0.516969 0.358092
vt 0.607468 0.286644
vt 0.532025 0.358087
vt 0.600352 0.279129
vt 0.524084 0.365606
vt 0.452612 0.433289
vt 0.445496 0.425775
vt 0.599634 0.429481
vt 0.591693 0.437001
vt 0.373504 0.365657
vt 0.298061 0.437100
vt 0.290945 0.429585
vt 0.366388 0.358142
vt 0.298780 0.286748
vt 0.306720 0.279229
vt 0.437555 0.433294
vt 0.444671 0.440809
vt 0.369228 0.512251
vt 0.362112 0.504737
vt 0.520220 0.504684
vt 0.512280 0.512203
vn 0.000000 -0.000000 1.000000
vn 0.000000 -0.000000 1.000000
vn 0.000000 -0.000000 1.000000
vn 0.000000 -0.000000 1.000000
vn 0.000000 -0.000000 1.000000
vn 0.000000 -0.000000 1.000000
vn 0.000000 -0.000000 1.000000
vn 0.000000 -0.000000 1.000000
vn 0.000000 -0.000000 1.000000
vn 0.000000 -0.000000 1.000000
vn 0.000000 -0.000000 1.000000
vn 0.000000 -0.000000 1.000000
vn 0.000000 -0.000000 1.000000
vn 0.000000 -0.000000 1.000000
vn 0.000000 0.000000 1.000000
vn 0.000000 0.000000 1.000000
vn 0.000000 -0.000000 1.000000
vn 0.000000 -0.000000 1.000000
vn 0.000000 0.000000 1.000000
vn 0.000000 0.000000 1.000000
vn 0.000000 -0.000000 1.000000
vn 0.000000 -0.000000 1.000000
vn 0.000000 0.000000 1.000000
vn 0.000000 0.000000 1.000000
vn -0.326233 0.945289 0.000000
vn -0.097317 0.995253 0.000000
vn -0.097317 0.995253 0.000000
vn -0.326233 0.945289 0.000000
vn -0.097317 0.995253 0.000000
vn 0.097317 0.995253 0.000000
vn 0.097317 0.995253 0.000000
vn -0.097317 0.995253 0.000000
vn 0.097317 0.995253 0.000000
vn 0.326233 0.945289 0.000000
vn 0.326233 0.945289 0.000000
vn 0.097317 0.995253 0.000000
vn 0.000000 0.000000 -1.000000
vn 0.000000 0.000000 -1.000000
vn 0.000000 0.000000 -1.000000
vn 0.000000 0.000000 -1.000000
vn 0.000000 0.000000 -1.000000
vn 0.000000 0.000000 -1.000000
vn 0.000000 0.000000 -1.000000
vn 0.000000 0.000000 -1.000000
vn 0.000000 0.000000 -1.000000
vn 0.000000 0.000000 -1.000000
vn 0.000000 0.000000 -1.000000
vn 0.000000 0.000000 -1.000000
vn 0.000000 0.000000 -1.000000
vn 0.000000 0.000000 -1.000000
vn 0.000000 0.000000 -1.000000
vn 0.000000 0.000000 -1.000000
vn 0.000000 0.000000 -1.000000
vn 0.000000 0.000000 -1.000000
vn 0.000000 0.000000 -1.000000
vn 0.000000 0.000000 -1.000000
vn 0.000000 0.000000 -1.000000
vn 0.000000 0.000000 -1.000000
vn 0.000000 0.000000 -1.000000
vn 0.000000 0.000000 -1.000000
vn 1.000000 0.000000 0.000000
vn 1.000000 0.000000 0.000000
vn 0.999559 0.029705 0.000000
vn 0.999559 0.029705 0.000000
vn 0.999559 0.029705 0.000000
vn 0.999559 0.029705 0.000000
vn 0.865747 0.500482 0.000000
vn 0.865747 0.500482 0.000000
vn -1.000000 0.000000 0.000000
vn -1.000000 0.000000 0.000000
vn -0.999559 0.029705 0.000000
vn -0.999559 0.029705 0.000000
vn -0.999559 0.029705 0.000000
vn -0.999559 0.029705 0.000000
vn -0.865747 0.500482 0.000000
vn -0.865747 0.500482 0.000000
vn -0.865747 0.500482 0.000000
vn -0.865747 0.500482 0.000000
vn -0.653295 0.757103 0.000000
vn -0.653295 0.757104 0.000000
vn 0.000000 0.000000 -1.000000
vn 0.000000 0.000000 -1.000000
vn 0.000000 0.000000 -1.000000
vn 0.000000 0.000000 -1.000000
vn 0.000000 0.000000 -1.000000
vn 0.000000 0.000000 -1.000000
vn 0.000000 0.000000 -1.000000
vn 0.000000 0.000000 -1.000000
vn 0.000000 0.000000 -1.000000
vn 0.000000 0.000000 -1.000000
vn 0.000000 0.000000 -1.000000
vn 0.000000 0.000000 -1.000000
vn 0.865747 0.500482 0.000000
vn 0.865747 0.500482 0.000000
vn 0.653295 0.757103 0.000000
vn 0.653295 0.757103 0.000000
vn 0.000000 0.000000 1.000000
vn 0.000000 0.000000 1.000000
vn 0.000000 0.000001 1.000000
vn 0.000000 0.000001 1.000000
vn 0.000000 0.000000 1.000000
vn 0.000000 0.000000 1.000000
vn 0.000000 0.000001 1.000000
vn 0.000000 0.000001 1.000000
vn 0.000000 0.000000 1.000000
vn 0.000000 0.000000 1.000000
vn 0.000000 0.000001 1.000000
vn 0.000000 0.000001 1.000000
vn 0.534978 -0.722316 0.438243
vn 0.534979 -0.722316 0.438243
vn 0.534978 -0.722316 0.438243
vn 0.534979 -0.722316 0.438243
vn 0.935708 -0.238077 0.260328
vn 0.935708 -0.238077 0.260328
vn 0.935708 -0.238077 0.260328
vn 0.935708 -0.238077 0.260328
vn -0.315249 0.442355 0.839607
vn -0.315249 0.442355 0.839607
vn -0.315249 0.442355 0.839607
vn -0.315249 0.442355 0.839607
vn -0.463877 0.138962 0.874933
vn -0.463877 0.138962 0.874933
vn -0.463877 0.138962 0.874933
vn -0.463877 0.138962 0.874933
vn -0.569320 0.822116 -0.000003
vn -0.569320 0.822116 -0.000003
vn -0.569320 0.822116 -0.000003
vn -0.569320 0.822116 -0.000003
vn -0.946516 0.322656 -0.000001
vn -0.946516 0.322656 -0.000001
vn -0.946516 0.322656 -0.000001
vn -0.946516 0.322656 -0.000001
vn -0.315249 0.442356 -0.839606
vn -0.315249 0.442356 -0.839606
vn -0.315249 0.442356 -0.839606
vn -0.315249 0.442356 -0.839606
vn -0.479317 0.158774 -0.863160
vn -0.479317 0.158774 -0.863160
vn -0.479317 0.158774 -0.863160
vn -0.479317 0.158774 -0.863160
vn 0.534978 -0.722316 -0.438244
vn 0.534978 -0.722316 -0.438244
vn 0.534978 -0.722316 -0.438244
vn 0.534978 -0.722316 -0.438244
vn 0.914430 -0.258764 -0.311222
vn 0.914430 -0.258764 -0.311222
vn 0.914430 -0.258764 -0.311222
vn 0.914430 -0.258764 -0.311222
vn -0.436557 -0.035499 -0.898976
vn -0.436557 -0.035499 -0.898976
vn -0.436557 -0.035499 -0.898976
vn -0.436557 -0.035499 -0.898976
vn -0.999728 -0.011142 -0.020483
vn -0.999728 -0.011142 -0.020483
vn -0.999728 -0.011142 -0.020483
vn -0.999728 -0.011142 -0.020483
vn -0.412634 -0.011225 0.910828
vn -0.412634 -0.011225 0.910828
vn -0.412634 -0.011225 0.910828
vn -0.412634 -0.011225 0.910828
vn 0.972144 0.003262 0.234362
vn 0.972144 0.003262 0.234362
vn 0.972144 0.003262 0.234362
vn 0.972144 0.003262 0.234362
vn 0.969183 0.001928 -0.246336
vn 0.969183 0.001928 -0.246336
vn 0.969183 0.001928 -0.246336
vn 0.969183 0.001928 -0.246336
vn -0.534978 -0.722316 0.438243
vn -0.534978 -0.722316 0.438243
vn -0.534978 -0.722316 0.438243
vn -0.534978 -0.722316 0.438243
vn -0.935708 -0.238077 0.260327
vn -0.935708 -0.238077 0.260327
vn -0.935708 -0.238077 0.260328
vn -0.935708 -0.238077 0.260327
vn 0.315250 0.442355 0.839607
vn 0.315249 0.442355 0.839607
vn 0.315249 0.442355 0.839607
vn 0.315250 0.442355 0.839607
vn 0.463877 0.138962 0.874933
vn 0.463877 0.138962 0.874933
vn 0.463877 0.138962 0.874933
vn 0.463877 0.138962 0.874933
vn 0.569320 0.822116 -0.000003
vn 0.569320 0.822116 -0.000003
vn 0.569320 0.822116 -0.000003
vn 0.569320 0.822116 -0.000003
vn 0.946516 0.322656 -0.000001
vn 0.946516 0.322656 -0.000001
vn 0.946516 0.322656 -0.000001
vn 0.946516 0.322656 -0.000001
vn 0.315249 0.442356 -0.839606
vn 0.315249 0.442356 -0.839606
vn 0.315249 0.442356 -0.839606
vn 0.315249 0.442356 -0.839606
vn 0.479317 0.158774 -0.863160
vn 0.479317 0.158774 -0.863160
vn 0.479317 0.158774 -0.863160
vn 0.479317 0.158774 -0.863160
vn -0.534978 -0.722316 -0.438244
vn -0.534978 -0.722316 -0.438244
vn -0.534978 -0.722316 -0.438244
vn -0.534978 -0.722316 -0.438244
vn -0.914430 -0.258764 -0.311222
vn -0.914430 -0.258764 -0.311222
vn -0.914430 -0.258764 -0.311222
vn -0.914430 -0.258764 -0.311222
vn 0.436557 -0.035499 -0.898976
vn 0.436557 -0.035499 -0.898976
vn 0.436557 -0.035499 -0.898976
vn 0.436557 -0.035499 -0.898976
vn 0.999728 -0.011142 -0.020483
vn 0.999728 -0.011142 -0.020483
vn 0.999728 -0.011142 -0.020483
vn 0.999728 -0.011142 -0.020483
vn 0.412634 -0.011225 0.910828
vn 0.412634 -0.011225 0.910828
vn 0.412634 -0.011225 0.910828
vn 0.412634 -0.011225 0.910828
vn -0.972144 0.003262 0.234362
vn -0.972144 0.003262 0.234362
vn -0.972144 0.003262 0.234362
vn -0.972144 0.003262 0.234362
vn -0.969183 0.001928 -0.246336
vn -0.969183 0.001928 -0.246336
vn -0.969183 0.001928 -0.246336
vn -0.969183 0.001928 -0.246336
vn 0.000000 -0.870727 0.491767
vn 0.000000 -0.870727 0.491767
vn 0.000000 -0.870727 0.491767
vn 0.000000 -0.870727 0.491767
vn 0.000000 -0.870726 -0.491769
vn 0.000000 -0.870726 -0.491769
vn 0.000000 -0.870726 -0.491769
vn 0.000000 -0.870726 -0.491769
vn 0.000000 0.571613 -0.820523
vn 0.000000 0.571613 -0.820523
vn 0.000000 0.571613 -0.820523
vn 0.000000 0.571613 -0.820523
vn 0.000000 1.000000 -0.000006
vn 0.000000 1.000000 -0.000006
vn 0.000000 1.000000 -0.000006
vn 0.000000 1.000000 -0.000006
vn 0.000000 0.571610 0.820525
vn 0.000000 0.571610 0.820525
vn 0.000000 0.571610 0.820525
vn 0.000000 0.571610 0.820525
vn -0.534979 0.722316 0.438243
vn -0.534979 0.722316 0.438243
vn -0.534979 0.722316 0.438243
vn -0.534979 0.722316 0.438243
vn -0.935707 0.238078 0.260328
vn -0.935707 0.238078 0.260328
vn -0.935707 0.238078 0.260328
vn -0.935707 0.238078 0.260328
vn 0.315250 -0.442355 0.839607
vn 0.315250 -0.442355 0.839607
vn 0.315250 -0.442355 0.839607
vn 0.315250 -0.442355 0.839607
vn 0.463877 -0.138962 0.874933
vn 0.463877 -0.138962 0.874933
vn 0.463877 -0.138962 0.874933
vn 0.463877 -0.138962 0.874933
vn 0.569320 -0.822116 -0.000003
vn 0.569320 -0.822116 -0.000003
vn 0.569320 -0.822116 -0.000003
vn 0.569320 -0.822116 -0.000003
vn 0.946516 -0.322656 -0.000001
vn 0.946516 -0.322656 -0.000001
vn 0.946516 -0.322656 -0.000001
vn 0.946516 -0.322656 -0.000001
vn -0.534978 0.722316 -0.438244
vn -0.534978 0.722316 -0.438244
vn -0.534978 0.722316 -0.438244
vn -0.534978 0.722316 -0.438244
vn -0.914430 0.258763 -0.311222
vn -0.914430 0.258763 -0.311222
vn -0.914430 0.258763 -0.311222
vn -0.914430 0.258763 -0.311222
vn 0.999669 0.015596 -0.020482
vn 0.999669 0.015596 -0.020482
vn 0.999669 0.015596 -0.020482
vn 0.999669 0.015596 -0.020482
vn 0.413455 0.015878 0.910386
vn 0.413455 0.015878 0.910386
vn 0.413455 0.015878 0.910386
vn 0.413455 0.015878 0.910386
vn -0.972209 -0.004727 0.234067
vn -0.972209 -0.004727 0.234067
vn -0.972209 -0.004727 0.234067
vn -0.972209 -0.004727 0.234067
vn -0.969272 -0.002775 -0.245977
vn -0.969272 -0.002775 -0.245977
vn -0.969272 -0.002775 -0.245977
vn -0.969272 -0.002775 -0.245977
vn 0.534979 0.722316 0.438243
vn 0.534979 0.722317 0.438243
vn 0.534979 0.722317 0.438243
vn 0.534979 0.722316 0.438243
vn 0.935708 0.238077 0.260328
vn 0.935708 0.238077 0.260328
vn 0.935708 0.238077 0.260328
vn 0.935708 0.238077 0.260328
vn -0.315250 -0.442355 0.839607
vn -0.315250 -0.442355 0.839607
vn -0.315250 -0.442355 0.839607
vn -0.315250 -0.442355 0.839607
vn -0.463877 -0.138962 0.874933
vn -0.463877 -0.138962 0.874933
vn -0.463877 -0.138962 0.874933
vn -0.463877 -0.138962 0.874933
vn -0.569320 -0.822116 -0.000003
vn -0.569320 -0.822116 -0.000003
vn -0.569320 -0.822116 -0.000003
vn -0.569320 -0.822116 -0.000003
vn -0.946516 -0.322656 -0.000001
vn -0.946516 -0.322656 -0.000001
vn -0.946516 -0.322656 -0.000001
vn -0.946516 -0.322656 -0.000001
vn 0.534978 0.722317 -0.438244
vn 0.534978 0.722317 -0.438244
vn 0.534978 0.722317 -0.438244
vn 0.534978 0.722317 -0.438244
vn 0.914430 0.258763 -0.311222
vn 0.914430 0.258763 -0.311222
vn 0.914430 0.258763 -0.311222
vn 0.914430 0.258763 -0.311222
vn -0.999669 0.015596 -0.020482
vn -0.999669 0.015596 -0.020482
vn -0.999669 0.015596 -0.020482
vn -0.999669 0.015596 -0.020482
vn -0.413455 0.015878 0.910386
vn -0.413455 0.015878 0.910386
vn -0.413455 0.015878 0.910386
vn -0.413455 0.015878 0.910386
vn 0.972209 -0.004727 0.234067
vn 0.972209 -0.004727 0.234067
vn 0.972209 -0.004727 0.234067
vn 0.972209 -0.004727 0.234067
vn 0.969272 -0.002775 -0.245977
vn 0.969272 -0.002775 -0.245977
vn 0.969272 -0.002775 -0.245977
vn 0.969272 -0.002775 -0.245977
vn 0.000000 0.870726 0.491768
vn 0.000000 0.870726 0.491768
vn 0.000000 0.870726 0.491768
vn 0.000000 0.870726 0.491768
vn 0.000000 0.870726 -0.491768
vn 0.000000 0.870726 -0.491768
vn 0.000000 0.870726 -0.491768
vn 0.000000 0.870726 -0.491768
vn 0.000000 -1.000000 -0.000006
vn 0.000000 -1.000000 -0.000006
vn 0.000000 -1.000000 -0.000006
vn 0.000000 -1.000000 -0.000006
vn 0.000000 -0.571611 0.820525
vn 0.000000 -0.571611 0.820525
vn 0.000000 -0.571611 0.820525
vn 0.000000 -0.571611 0.820525
vn 0.000000 0.000000 1.000000
vn 0.000000 0.000000 1.000000
vn 0.000000 0.000000 1.000000
vn 0.000000 0.000000 1.000000
vn 0.000000 -1.000000 0.000000
vn 0.000000 -1.000000 0.000000
vn 0.000000 -1.000000 0.000000
vn 0.000000 -1.000000 0.000000
vn 0.000000 1.000000 0.000000
vn 0.000000 1.000000 0.000000
vn 0.000000 1.000000 0.000000
vn 0.000000 1.000000 0.000000
vn 1.000000 0.000000 0.000000
vn 1.000000 0.000000 0.000000
vn 1.000000 0.000000 0.000000
vn 1.000000 0.000000 0.000000
vn -1.000000 0.000000 0.000000
vn -1.000000 0.000000 0.000000
vn -1.000000 0.000000 0.000000
vn -1.000000 0.000000 0.000000
vn -0.402944 0.915225 0.000000
vn -0.123782 0.992309 0.000000
vn -0.123782 0.992309 0.000000
vn -0.402944 0.915225 0.000000
vn -0.123782 0.992309 0.000000
vn 0.123782 0.992309 0.000000
vn 0.123782 0.992309 0.000000
vn -0.123782 0.992309 0.000000
vn 0.123782 0.992309 0.000000
vn 0.402944 0.915225 0.000000
vn 0.402944 0.915225 0.000000
vn 0.123782 0.992309 0.000000
vn 0.997502 0.070631 0.000000
vn 0.997502 0.070631 0.000000
vn 0.958009 0.286737 0.000000
vn 0.958009 0.286737 0.000000
vn -0.997502 0.070631 0.000000
vn -0.997502 0.070631 0.000000
vn -0.958009 0.286737 0.000000
vn -0.958009 0.286737 0.000000
vn -0.958009 0.286737 0.000000
vn -0.958009 0.286737 0.000000
vn -0.740184 0.672404 0.000000
vn -0.740184 0.672404 0.000000
vn 0.958009 0.286737 0.000000
vn 0.958009 0.286737 0.000000
vn 0.740184 0.672404 0.000000
vn 0.740184 0.672404 0.000000
vn 0.000000 -0.000002 1.000000
vn 0.000000 -0.000002 1.000000
vn 0.000000 -0.000002 1.000000
vn 0.000000 -0.000002 1.000000
vn 0.000000 -0.000002 1.000000
vn 0.000000 -0.000002 1.000000
vn 0.000000 -0.000002 1.000000
vn 0.000000 -0.000002 1.000000
vn 0.000000 -0.000002 1.000000
vn 0.000000 -0.000002 1.000000
vn 0.000000 -0.000002 1.000000
vn 0.000000 -0.000002 1.000000
vn 0.000000 -1.000000 0.000000
vn 0.000000 -1.000000 0.000000
vn 0.000000 -1.000000 0.000000
vn 0.000000 -1.000000 0.000000
vn 0.000000 0.000000 1.000000
vn 0.000000 0.000000 1.000000
vn 0.000000 0.000000 1.000000
vn 0.000000 0.000000 1.000000
vn 0.000000 0.309857 0.950783
vn 0.000000 0.309857 0.950783
vn 0.000000 0.309857 0.950783
vn 0.000000 0.309857 0.950783
vn 0.000000 -1.000000 0.000000
vn 0.000000 -1.000000 0.000000
vn 0.000000 -1.000000 0.000000
vn 0.000000 -1.000000 0.000000
vn 0.000000 1.000000 0.000000
vn 0.000000 1.000000 0.000000
vn 0.000000 1.000000 0.000000
vn 0.000000 1.000000 0.000000
vn 0.996340 0.085476 0.000000
vn 0.996340 0.085476 0.000000
vn 0.996340 0.085476 0.000000
vn 0.996340 0.085476 0.000000
vn -0.996340 0.085476 0.000000
vn -0.996340 0.085476 0.000000
vn -0.996340 0.085476 0.000000
vn -0.996340 0.085476 0.000000
vn 0.000000 0.000000 1.000000
vn 0.000000 0.000000 1.000000
vn 0.000000 0.000000 1.000000
vn 0.000000 0.000000 1.000000
vn 0.000000 0.000000 1.000000
vn 0.000000 0.000000 1.000000
vn 0.000001 0.000000 1.000000
vn -0.000001 0.000000 1.000000
vn 0.000000 0.000000 1.000000
vn 0.000000 0.000000 1.000000
vn 0.000000 0.000000 1.000000
vn 0.000000 0.000000 1.000000
vn 0.000000 0.000000 1.000000
vn 0.000000 0.000000 1.000000
vn 0.000001 0.000000 1.000000
vn -0.000001 0.000000 1.000000
vn 0.000003 0.000000 1.000000
vn 0.000003 0.000000 1.000000
vn 0.000002 0.000000 1.000000
vn 0.000001 0.000000 1.000000
vn -0.000001 0.000000 1.000000
vn 0.000000 0.000000 1.000000
vn 0.000000 0.000000 1.000000
vn 0.000000 0.000000 1.000000
vn 0.000000 0.000000 1.000000
vn 0.000002 0.000000 1.000000
vn 0.000003 0.000000 1.000000
vn 0.000003 0.000000 1.000000
vn -0.000002 0.000000 1.000000
vn 0.000000 0.000000 1.000000
vn -0.000003 0.000000 1.000000
vn -0.000003 0.000000 1.000000
vn -0.000001 0.000000 1.000000
vn -0.000002 0.000000 1.000000
vn -0.000003 0.000000 1.000000
vn -0.000003 0.000000 1.000000
vn 0.000000 0.000000 1.000000
vn 0.000001 0.000000 1.000000
vn 0.000000 0.000000 1.000000
vn 0.000001 0.000000 1.000000
vn 0.000001 0.000000 1.000000
vn 0.000001 0.000000 1.000000
vn 0.000000 0.000000 1.000000
vn 0.000000 0.000000 1.000000
vn 0.000001 0.000000 1.000000
vn 0.000000 0.000000 1.000000
vn 0.000003 0.000000 1.000000
vn 0.000003 0.000000 1.000000
vn 0.000000 0.000000 1.000000
vn 0.000000 0.000000 1.000000
vn 0.000000 0.000000 1.000000
vn 0.000000 0.000000 1.000000
vn -0.000001 0.000000 1.000000
vn 0.000001 0.000000 1.000000
vn 0.000002 0.000000 1.000000
vn 0.000000 0.000000 1.000000
vn -0.000002 0.000000 1.000000
vn -0.000001 0.000000 1.000000
vn 0.000001 0.000000 1.000000
vn 0.000000 0.000000 1.000000
vn 0.000001 0.000000 1.000000
vn 0.000000 0.000000 1.000000
vn 0.000000 0.000000 1.000000
vn 0.000001 0.000000 1.000000
vn 0.814323 0.580412 0.000000
vn 0.814323 0.580412 0.000000
vn 0.814323 0.580412 0.000000
vn 0.814323 0.580412 0.000000
vn -0.814322 -0.580413 0.000000
vn -0.814322 -0.580413 0.000000
vn -0.814322 -0.580413 0.000000
vn -0.814322 -0.580413 0.000000
vn 0.814323 0.580412 0.000000
vn 0.814323 0.580412 0.000000
vn 0.814323 0.580412 0.000000
vn 0.814323 0.580412 0.000000
vn -0.814323 -0.580412 0.000000
vn -0.814323 -0.580412 0.000000
vn -0.814323 -0.580412 0.000000
vn -0.814323 -0.580412 0.000000
vn -0.814323 0.580411 0.000000
vn -0.814323 0.580411 0.000000
vn -0.814323 0.580412 0.000000
vn -0.814323 0.580412 0.000000
vn 0.814323 -0.580412 0.000000
vn 0.814323 -0.580412 0.000000
vn 0.814323 -0.580412 0.000000
vn 0.814323 -0.580412 0.000000
vn 0.814324 -0.580411 0.000000
vn 0.814324 -0.580411 0.000000
vn 0.814324 -0.580411 0.000000
vn 0.814324 -0.580411 0.000000
vn -0.814323 0.580412 0.000000
vn -0.814323 0.580412 0.000000
vn -0.814323 0.580412 0.000000
vn -0.814323 0.580412 0.000000
vn 0.814323 0.580412 0.000000
vn 0.814323 0.580412 0.000000
vn 0.814323 0.580412 0.000000
vn 0.814323 0.580412 0.000000
vn -0.814323 -0.580412 0.000000
vn -0.814323 -0.580412 0.000000
vn -0.814323 -0.580412 0.000000
vn -0.814323 -0.580412 0.000000
vn 0.814324 0.580411 0.000000
vn 0.814324 0.580411 0.000000
vn 0.814324 0.580411 0.000000
vn 0.814324 0.580411 0.000000
vn -0.814322 -0.580413 0.000000
vn -0.814322 -0.580413 0.000000
vn -0.814322 -0.580413 0.000000
vn -0.814322 -0.580413 0.000000
vn 0.814322 -0.580414 0.000000
vn 0.814322 -0.580414 0.000000
vn 0.814322 -0.580414 0.000000
vn 0.814322 -0.580414 0.000000
vn -0.814322 0.580413 0.000000
vn -0.814322 0.580413 0.000000
vn -0.814322 0.580413 0.000000
vn -0.814322 0.580413 0.000000
vn 0.814323 0.580412 0.000000
vn 0.814323 0.580412 0.000000
vn 0.814323 0.580412 0.000000
vn 0.814323 0.580412 0.000000
vn -0.814323 -0.580412 0.000000
vn -0.814323 -0.580412 0.000000
vn -0.814323 -0.580412 0.000000
vn -0.814323 -0.580412 0.000000
vn -0.814322 0.580413 0.000000
vn -0.814322 0.580413 0.000000
vn -0.814322 0.580413 0.000000
vn -0.814322 0.580413 0.000000
vn 0.814322 -0.580413 0.000000
vn 0.814322 -0.580413 0.000000
vn 0.814322 -0.580413 0.000000
vn 0.814322 -0.580413 0.000000
vn 0.814323 -0.580412 0.000000
vn 0.814323 -0.580412 0.000000
vn 0.814323 -0.580412 0.000000
vn 0.814323 -0.580412 0.000000
vn -0.814323 0.580412 0.000000
vn -0.814323 0.580412 0.000000
vn -0.814323 0.580412 0.000000
vn -0.814323 0.580412 0.000000
vn 0.814322 0.580413 0.000000
vn 0.814322 0.580413 0.000000
vn 0.814322 0.580413 0.000000
vn 0.814322 0.580413 0.000000
vn -0.814322 -0.580413 0.000000
vn -0.814322 -0.580413 0.000000
vn -0.814322 -0.580413 0.000000
vn -0.814322 -0.580413 0.000000
vn 0.814323 -0.580412 0.000000
vn 0.814323 -0.580412 0.000000
vn 0.814323 -0.580412 0.000000
vn 0.814323 -0.580412 0.000000
vn -0.814322 0.580414 0.000000
vn -0.814322 0.580413 0.000000
vn -0.814322 0.580414 0.000000
vn -0.814322 0.580414 0.000000
g Jukebox:pCube5
usemtl initialShadingGroup
f 1/1/1 2/2/2 6/3/3 5/4/4
f 2/2/5 3/5/6 7/6/7 6/3/8
f 3/5/9 4/7/10 8/8/11 7/6/12
f 5/4/13 6/3/14 32/9/15 25/10/16
f 6/3/17 7/6/18 31/11/19 32/9/20
f 7/6/21 8/8/22 30/12/23 31/11/24
f 9/13/25 10/14/26 14/15/27 13/16/28
f 10/14/29 11/17/30 15/18/31 14/15/32
f 11/17/33 12/19/34 16/20/35 15/18/36
f 26/21/37 27/22/38 18/23/39 17/24/40
f 27/22/41 28/25/42 19/26/43 18/23/44
f 28/25/45 29/27/46 20/28/47 19/26/48
f 17/24/49 18/23/50 22/29/51 21/30/52
f 18/23/53 19/26/54 23/31/55 22/29/56
f 19/26/57 20/28/58 24/32/59 23/31/60
f 4/33/61 24/34/62 20/35/63 8/36/64
f 8/36/65 20/35/66 29/37/67 30/38/68
f 21/39/69 1/40/70 5/41/71 17/42/72
f 17/42/73 5/41/74 25/43/75 26/44/76
f 26/44/77 25/43/78 9/13/79 13/16/80
f 13/45/81 14/46/82 27/22/83 26/21/84
f 14/46/85 15/47/86 28/25/87 27/22/88
f 15/47/89 16/48/90 29/27/91 28/25/92
f 30/38/93 29/37/94 16/20/95 12/19/96
f 31/11/97 30/12/98 12/49/99 11/50/100
f 32/9/101 31/11/102 11/50/103 10/51/104
f 25/10/105 32/9/106 10/51/107 9/52/108
f 34/53/109 33/54/110 36/55/111 37/56/112
f 35/57/113 34/53/114 37/56/115 38/58/116
f 37/56/117 36/55/118 39/59/119 40/60/120
f 38/58/121 37/56/122 40/60/123 41/61/124
f 40/60/125 39/59/126 42/62/127 43/63/128
f 41/61/129 40/60/130 43/63/131 44/64/132
f 43/63/133 42/62/134 45/65/135 46/66/136
f 44/64/137 43/63/138 46/66/139 47/67/140
f 46/68/141 45/69/142 33/54/143 34/53/144
f 47/70/145 46/68/146 34/53/147 35/57/148
f 48/71/149 49/72/150 44/64/151 47/67/152
f 49/72/153 50/73/154 41/61/155 44/64/156
f 50/73/157 51/74/158 38/58/159 41/61/160
f 51/74/161 52/75/162 35/57/163 38/58/164
f 52/75/165 48/76/166 47/70/167 35/57/168
f 54/77/169 57/78/170 56/79/171 53/80/172
f 55/81/173 58/82/174 57/78/175 54/77/176
f 57/78/177 60/83/178 59/84/179 56/79/180
f 58/82/181 61/85/182 60/83/183 57/78/184
f 60/83/185 63/86/186 62/87/187 59/84/188
f 61/85/189 64/88/190 63/86/191 60/83/192
f 63/86/193 66/89/194 65/90/195 62/87/196
f 64/88/197 67/91/198 66/89/199 63/86/200
f 66/92/201 54/77/202 53/80/203 65/93/204
f 67/94/205 55/81/206 54/77/207 66/92/208
f 68/95/209 67/91/210 64/88/211 69/96/212
f 69/96/213 64/88/214 61/85/215 70/97/216
f 70/97/217 61/85/218 58/82/219 71/98/220
f 71/98/221 58/82/222 55/81/223 72/99/224
f 72/99/225 55/81/226 67/94/227 68/100/228
f 36/55/229 33/54/230 53/80/231 56/79/232
f 33/54/233 45/69/234 65/93/235 53/80/236
f 45/65/237 42/62/238 62/87/239 65/90/240
f 42/62/241 39/59/242 59/84/243 62/87/244
f 39/59/245 36/55/246 56/79/247 59/84/248
f 74/101/249 73/102/250 76/103/251 77/104/252
f 75/105/253 74/101/254 77/104/255 78/106/256
f 77/104/257 76/103/258 79/107/259 80/108/260
f 78/106/261 77/104/262 80/108/263 81/109/264
f 80/108/265 79/107/266 82/110/267 83/111/268
f 81/109/269 80/108/270 83/111/271 84/112/272
f 86/113/273 85/114/274 73/102/275 74/101/276
f 87/115/277 86/113/278 74/101/279 75/105/280
f 89/116/281 90/117/282 81/109/283 84/112/284
f 90/117/285 91/118/286 78/106/287 81/109/288
f 91/118/289 92/119/290 75/105/291 78/106/292
f 92/119/293 88/120/294 87/115/295 75/105/296
f 94/121/297 97/122/298 96/123/299 93/124/300
f 95/125/301 98/126/302 97/122/303 94/121/304
f 97/122/305 100/127/306 99/128/307 96/123/308
f 98/126/309 101/129/310 100/127/311 97/122/312
f 100/127/313 103/130/314 102/131/315 99/128/316
f 101/129/317 104/132/318 103/130/319 100/127/320
f 106/133/321 94/121/322 93/124/323 105/134/324
f 107/135/325 95/125/326 94/121/327 106/133/328
f 109/136/329 104/132/330 101/129/331 110/137/332
f 110/137/333 101/129/334 98/126/335 111/138/336
f 111/138/337 98/126/338 95/125/339 112/139/340
f 112/139/341 95/125/342 107/135/343 108/140/344
f 76/103/345 73/102/346 93/124/347 96/123/348
f 73/102/349 85/114/350 105/134/351 93/124/352
f 82/110/353 79/107/354 99/128/355 102/131/356
f 79/107/357 76/103/358 96/123/359 99/128/360
f 113/141/361 115/142/362 116/143/363 114/144/364
f 115/142/365 117/145/366 118/146/367 116/143/368
f 119/147/369 113/141/370 114/144/371 120/148/372
f 114/144/373 116/143/374 118/149/375 120/150/376
f 119/151/377 117/152/378 115/142/379 113/141/380
f 123/153/381 124/154/382 128/155/383 127/156/384
f 124/154/385 125/157/386 129/158/387 128/155/388
f 125/157/389 126/159/390 130/160/391 129/158/392
f 122/161/393 132/162/394 135/163/395 136/164/396
f 131/165/397 121/166/398 133/167/399 134/168/400
f 134/169/401 133/170/402 123/153/403 127/156/404
f 136/171/405 135/172/406 130/160/407 126/159/408
f 137/173/409 136/171/410 126/159/411 125/157/412
f 138/174/413 137/173/414 125/157/415 124/154/416
f 133/170/417 138/174/418 124/154/419 123/153/420
f 132/175/421 122/161/422 121/166/423 131/176/424
f 133/167/425 121/166/426 122/161/427 136/164/428
f 139/177/429 141/178/430 142/179/431 140/180/432
f 141/178/433 143/181/434 144/182/435 142/179/436
f 145/183/437 139/177/438 140/180/439 146/184/440
f 140/180/441 142/179/442 144/185/443 146/186/444
f 145/187/445 143/188/446 141/178/447 139/177/448
f 179/189/449 180/190/450 181/191/451 182/192/452
f 183/193/453 184/194/454 185/195/455 186/196/456
f 182/192/457 183/193/458 187/197/459 188/198/460
f 184/194/461 181/191/462 189/199/463 190/200/464
f 191/201/465 192/202/466 193/203/467 189/199/468
f 190/200/469 194/204/470 195/205/471 196/206/472
f 194/204/473 193/203/474 197/207/475 198/208/476
f 199/209/477 200/210/478 201/211/479 202/212/480
f 186/196/481 199/209/482 203/213/483 204/214/484
f 200/210/485 185/195/486 196/206/487 205/215/488
f 205/215/489 206/216/490 207/217/491 208/218/492
f 206/216/493 195/205/494 209/219/495 210/220/496
f 183/193/497 182/192/498 181/191/499 184/194/500
f 190/200/501 189/199/502 193/203/503 194/204/504
f 199/209/505 186/196/506 185/195/507 200/210/508
f 205/215/509 196/206/510 195/205/511 206/216/512
f 147/221/513 151/222/514 181/191/515 180/190/516
f 150/223/517 148/224/518 179/189/519 182/192/520
f 152/225/521 163/226/522 185/195/523 184/194/524
f 162/227/525 149/228/526 183/193/527 186/196/528
f 149/228/529 160/229/530 187/197/531 183/193/532
f 159/230/533 150/223/534 182/192/535 188/198/536
f 151/222/537 156/231/538 189/199/539 181/191/540
f 155/232/541 152/225/542 184/194/543 190/200/544
f 153/233/545 157/234/546 193/203/547 192/202/548
f 156/231/549 154/235/550 191/201/551 189/199/552
f 158/236/553 169/237/554 195/205/555 194/204/556
f 168/238/557 155/232/558 190/200/559 196/206/560
f 157/234/561 166/239/562 197/207/563 193/203/564
f 165/240/565 158/236/566 194/204/567 198/208/568
f 164/241/569 174/242/570 201/211/571 200/210/572
f 173/243/573 161/244/574 199/209/575 202/212/576
f 161/244/577 172/245/578 203/213/579 199/209/580
f 171/246/581 162/227/582 186/196/583 204/214/584
f 163/226/585 168/238/586 196/206/587 185/195/588
f 167/247/589 164/241/590 200/210/591 205/215/592
f 170/248/593 178/249/594 207/217/595 206/216/596
f 177/250/597 167/247/598 205/215/599 208/218/600
f 169/237/601 176/251/602 209/219/603 195/205/604
f 175/252/605 170/248/606 206/216/607 210/220/608
